<?xml version="1.0" standalone="no"?>
<!DOCTYPE svg PUBLIC "-//W3C//DTD SVG 20010904//EN"
 "http://www.w3.org/TR/2001/REC-SVG-20010904/DTD/svg10.dtd">
<svg version="1.0" xmlns="http://www.w3.org/2000/svg"
 width="320.000000pt" height="320.000000pt" viewBox="0 0 320.000000 320.000000"
 preserveAspectRatio="xMidYMid meet">
<metadata>
Created by potrace 1.14, written by Peter Selinger 2001-2017
</metadata>
<g transform="translate(0.000000,320.000000) scale(0.100000,-0.100000)"
fill="#000000" stroke="none">
<path d="M2105 2978 c-42 -15 -141 -83 -159 -110 -22 -31 -20 -115 2 -158 10
-19 19 -49 20 -67 1 -18 7 -44 12 -57 10 -27 64 -61 81 -50 6 3 21 3 34 0 22
-6 23 -9 13 -36 -7 -21 -7 -39 2 -62 11 -33 11 -34 -63 -104 -153 -144 -375
-247 -562 -261 l-80 -6 -14 84 c-17 103 -39 298 -35 319 1 8 3 26 3 38 1 15 8
26 20 29 30 8 46 47 35 85 -17 59 -74 70 -205 43 -96 -20 -158 -56 -246 -141
-63 -61 -73 -76 -73 -105 0 -54 49 -106 63 -66 8 22 14 3 21 -58 3 -33 10 -85
16 -115 5 -30 12 -71 15 -90 3 -19 10 -53 15 -75 8 -32 6 -42 -6 -52 -19 -14
-11 -46 20 -84 12 -14 28 -53 35 -85 7 -32 23 -104 36 -159 13 -55 31 -134 41
-175 37 -166 64 -245 90 -266 15 -12 27 -35 30 -55 3 -19 10 -56 15 -82 13
-57 7 -111 -27 -262 -20 -84 -28 -155 -34 -300 -5 -104 -14 -206 -19 -225 -31
-104 -79 -127 -239 -116 -53 3 -137 9 -187 12 -143 10 -287 -35 -420 -130
l-50 -36 1280 1 1280 1 -75 20 c-41 11 -133 32 -205 47 l-130 28 30 15 c47 25
80 67 119 151 30 65 39 77 51 67 11 -9 19 -7 38 12 31 32 52 138 52 268 -1
104 -11 136 -50 146 -29 7 -30 12 -10 84 55 200 70 259 95 376 33 155 47 351
30 415 -19 72 -155 407 -207 510 -26 52 -61 126 -77 163 -34 79 -80 123 -136
132 -22 4 -40 9 -40 13 1 34 67 59 176 66 167 12 248 25 301 51 74 36 133 111
107 137 -6 6 -12 40 -16 87 -1 8 -6 18 -12 22 -8 5 -7 8 2 8 6 0 12 7 12 15 0
36 -54 7 -79 -43 -44 -85 -129 -129 -277 -142 -133 -12 -176 -24 -219 -61 -26
-23 -38 -28 -51 -21 -14 8 -12 10 12 16 48 12 74 44 74 90 0 40 0 41 37 41 36
0 61 24 26 26 -10 0 -13 3 -5 6 21 8 14 49 -10 61 l-23 11 24 0 c17 1 22 5 17
17 -3 9 -6 22 -6 29 0 7 -10 15 -23 19 -13 3 -41 23 -63 45 -23 21 -58 44 -80
50 -48 14 -129 13 -169 -1z m160 -198 c7 -11 -11 -40 -24 -40 -3 0 -6 11 -6
25 0 25 18 34 30 15z m-210 -60 c0 -22 -21 -22 -22 1 -1 12 3 19 10 16 7 -2
12 -10 12 -17z m5 -726 c0 -7 -57 -33 -81 -37 -13 -3 -44 -1 -69 2 l-45 7 35
16 c19 8 57 29 84 47 l50 31 13 -31 c7 -17 13 -33 13 -35z m-455 -299 c134
-24 152 -25 296 -16 163 11 214 17 241 32 26 14 27 12 49 -38 28 -65 89 -227
86 -229 -2 -2 -74 17 -252 66 -60 17 -153 42 -205 56 -52 14 -129 35 -170 47
-44 13 -101 21 -137 21 -60 -1 -61 -1 -67 29 -9 43 -7 57 6 57 6 0 75 -11 153
-25z m76 -471 c24 -8 78 -26 119 -39 41 -13 172 -57 290 -97 183 -63 215 -78
214 -94 -3 -37 -34 -239 -39 -253 -10 -27 -6 -327 5 -395 15 -95 45 -174 77
-209 l28 -29 -30 6 c-50 10 -194 25 -305 32 l-105 6 3 60 c3 48 -1 69 -22 111
-42 85 -86 209 -92 257 -9 74 -33 165 -94 350 -32 96 -65 200 -75 230 -9 30
-19 61 -22 68 -6 15 -4 15 48 -4z m-220 -364 c65 -160 143 -302 175 -322 22
-13 41 -39 63 -88 35 -80 36 -86 17 -93 -8 -3 -16 -16 -18 -28 -2 -18 -15 -26
-66 -40 -85 -24 -107 -40 -128 -94 -12 -32 -21 -44 -31 -40 -8 3 -19 5 -23 5
-5 0 -25 14 -45 31 -49 43 -63 102 -79 325 -15 212 -4 540 21 614 2 8 22 -32
44 -90 22 -58 53 -139 70 -180z"/>
</g>
</svg>
